<svg width="265" height="50" viewBox="0 0 265 50" fill="none" xmlns="http://www.w3.org/2000/svg">
<path d="M238.633 28.2004L237.749 27.6925L234.812 29.3929V36.9013C235.298 37.1442 235.806 37.4092 236.27 37.5858C237.065 37.8067 237.838 37.9833 238.61 38.0717V28.2004H238.633Z" fill="#216B8C"/>
<path d="M239.229 38.1379C239.737 38.1821 240.267 38.2042 240.775 38.2262V20.3167L239.229 21.2V38.1379Z" fill="#216B8C"/>
<path d="M250.602 25.2854L246.229 22.7679V37.7183C246.516 37.6521 246.781 37.5637 247.046 37.4754C248.349 37.0117 249.52 36.3933 250.602 35.7087V25.2854Z" fill="#216B8C"/>
<path d="M245.633 21.2L242.431 19.345L241.371 19.9633V38.2263C241.459 38.2263 241.547 38.2263 241.636 38.2263C243.137 38.2263 244.485 38.0938 245.633 37.8508V21.2Z" fill="#216B8C"/>
<path d="M247.046 37.4754C247.731 37.2325 248.349 36.9454 248.968 36.6583C248.349 36.9454 247.709 37.2325 247.046 37.4754Z" fill="#63C7F2"/>
<path d="M250.602 35.7087C250.16 35.9958 249.696 36.2608 249.21 36.5037C249.696 36.2608 250.138 35.9958 250.602 35.7087Z" fill="#63C7F2"/>
<path d="M241.525 7.24333C242.122 7.24333 242.718 7.26541 243.314 7.33166C246.097 7.64083 248.725 8.63458 250.999 10.1583C250.535 9.01 249.851 7.66291 248.901 6.4925C247.068 5.80791 245.103 5.4325 243.049 5.4325C236.689 5.4325 231.08 8.96583 228.187 14.2437C229.026 13.0071 230.042 11.8808 231.19 10.9312C232.869 9.56208 234.878 8.47999 237.02 7.86166C238.478 7.44208 239.98 7.24333 241.525 7.24333Z" fill="#8CC740"/>
<path d="M262.284 15.0387C264.625 12.4329 262.593 7.92792 262.593 7.92792C257.978 -0.507917 247.046 3.11375 247.046 3.11375C251.529 5.32208 253.031 11.7483 253.031 11.7483C254.577 16.5625 256.432 17.4237 258.552 17.2471C259.59 20.0737 260.893 33.9862 247.532 38.8446C244.904 39.7942 241.437 39.8604 238.699 39.5513C237.705 39.4408 236.711 39.22 235.762 38.9329H235.784C238.809 40.5008 242.232 41.2296 245.611 40.8983C247.267 40.7437 248.879 40.3904 250.293 39.8162C263.057 34.5825 263.079 20.8025 260.826 15.2154C257.801 7.77333 251.794 4.59333 251.794 4.59333C258.397 6.91208 261.732 12.2783 262.284 15.0387Z" fill="#8CC740"/>
<path d="M246.229 22.0833V20.8687L242.431 18.6604L238.633 20.8687V27.5158L237.749 27.0079L234.216 29.0396V36.5921L234.812 36.9012V29.3929L237.749 27.6925L238.633 28.2004V38.0716L239.229 38.1379V21.2L240.775 20.3167V38.2262L241.371 38.2483V19.9633L242.431 19.3671L245.633 21.2V37.8729L246.229 37.7183V22.7679L250.602 25.2854V35.7087L251.198 35.3333V24.9542L246.229 22.0833Z" fill="white"/>
<path d="M21.1337 29.6138C21.1337 37.0117 17.7108 40.9425 11.3508 40.9425C5.01291 40.9425 1.59 37.0117 1.59 29.6138C1.59 22.2158 5.01291 18.4175 11.3508 18.4175C17.7108 18.4175 21.1337 22.2158 21.1337 29.6138ZM4.48291 29.6138C4.48291 35.4438 6.89 38.5354 11.3508 38.5354C15.8117 38.5354 18.2408 35.4217 18.2408 29.6138C18.2408 23.8058 15.8117 20.8025 11.3508 20.8025C6.89 20.8246 4.48291 23.7838 4.48291 29.6138Z" fill="#216B8C"/>
<path d="M38.0275 29.15V40.1254C38.0275 40.5671 37.6521 40.8321 36.7687 40.8321H36.6362C35.7529 40.8321 35.3775 40.5892 35.3775 40.1254V29.3929C35.3775 27.4717 34.2071 26.3234 32.1533 26.3234C30.7179 26.3234 29.2162 27.1846 28.1562 28.5317V40.1254C28.1562 40.5671 27.7808 40.8321 26.8975 40.8321H26.765C25.8817 40.8321 25.5062 40.5892 25.5062 40.1254V29.0175C25.5062 26.4117 25.1308 25.1971 25.1308 25.0204C25.1308 24.4242 26.4337 24.2917 26.8312 24.2917C27.5821 24.2917 27.7587 25.5504 27.9354 26.3896C29.2604 24.91 31.0933 24.0046 32.8821 24.0046C36.0842 24.0046 38.0275 25.9479 38.0275 29.15Z" fill="#216B8C"/>
<path d="M55.8708 32.2637C55.8708 32.6392 55.2083 33.5667 54.8329 33.5667H44.8292C45.0721 37.0779 46.5737 38.6679 49.7096 38.6679C52.47 38.6679 54.0158 37.3429 54.325 37.3429C54.7667 37.3429 55.4292 38.5796 55.4292 38.9329C55.4292 39.6837 52.9337 40.9646 49.7317 40.9646C44.4758 40.9646 41.9804 38.2704 41.9804 32.6171C41.9804 27.0079 44.52 24.0487 49.3562 24.0487C53.6846 24.0046 55.8708 26.8975 55.8708 32.2637ZM44.8292 31.2921H53.0662C53.0662 27.9575 51.8075 26.3012 49.2679 26.3012C46.5075 26.3012 45.05 27.9575 44.8292 31.2921Z" fill="#216B8C"/>
<path d="M148.797 19.2346V40.1254C148.797 40.5671 148.422 40.8321 147.539 40.8321H147.296C146.412 40.8321 146.037 40.5892 146.037 40.1254V30.6075H134.576V40.1254C134.576 40.5671 134.2 40.8321 133.317 40.8321H133.074C132.191 40.8321 131.815 40.5892 131.815 40.1254V19.2346C131.815 18.7929 132.191 18.5279 133.074 18.5279H133.317C134.2 18.5279 134.576 18.7708 134.576 19.2346V28.2004H146.037V19.2346C146.037 18.7929 146.412 18.5279 147.296 18.5279H147.539C148.422 18.5279 148.797 18.7929 148.797 19.2346Z" fill="#216B8C"/>
<path d="M167.37 32.2637C167.37 32.6392 166.707 33.5667 166.332 33.5667H156.328C156.571 37.0779 158.072 38.6679 161.208 38.6679C163.969 38.6679 165.515 37.3429 165.824 37.3429C166.265 37.3429 166.928 38.5796 166.928 38.9329C166.928 39.6837 164.432 40.9646 161.23 40.9646C155.975 40.9646 153.479 38.2704 153.479 32.6171C153.479 27.0079 156.019 24.0487 160.855 24.0487C165.183 24.0046 167.37 26.8975 167.37 32.2637ZM156.328 31.2921H164.565C164.565 27.9575 163.306 26.3012 160.767 26.3012C158.006 26.3012 156.549 27.9575 156.328 31.2921Z" fill="#216B8C"/>
<path d="M183.358 28.9734V36.0621C183.358 38.6679 183.733 39.8825 183.733 40.0592C183.733 40.6554 182.43 40.7879 182.033 40.7879C181.282 40.7879 181.105 39.4629 180.929 38.5796C179.736 39.9046 177.992 40.9646 175.607 40.9646C172.537 40.9646 170.196 39.485 170.196 36.2167C170.196 30.8725 175.872 30.5192 180.708 30.4529V28.9734C180.708 27.5379 179.847 26.3234 177.219 26.3234C174.348 26.3234 172.603 27.6484 172.272 27.6484C171.83 27.6484 171.168 26.4117 171.168 26.0584C171.168 25.2413 173.95 24.0267 177.13 24.0267C181.039 24.0046 183.358 25.8375 183.358 28.9734ZM173.045 36.04C173.045 37.7184 173.972 38.6459 175.739 38.6459C178.058 38.6459 179.449 37.6079 180.708 36.4596V32.7275C177.395 32.7496 173.045 32.7496 173.045 36.04Z" fill="#216B8C"/>
<path d="M190.977 17.6446V36.3271C190.977 38.2263 191.772 38.6679 192.677 38.6679C193.605 38.6679 193.759 38.5133 194.046 38.5133C194.488 38.5133 194.709 39.75 194.709 39.9929C194.709 40.8542 193.251 40.9425 192.39 40.9425C190.8 40.9425 188.305 40.2358 188.305 36.57V17.6446C188.305 17.2029 188.68 16.9379 189.563 16.9379H189.696C190.601 16.96 190.977 17.2029 190.977 17.6446Z" fill="#216B8C"/>
<path d="M201.002 20.8688V24.1813H203.652C204.094 24.1813 204.293 24.4684 204.293 25.1309V25.5063C204.293 26.1688 204.094 26.4559 203.652 26.4559H201.002V36.305C201.002 38.2042 201.797 38.6459 202.703 38.6459C203.63 38.6459 203.785 38.4913 204.072 38.4913C204.514 38.4913 204.735 39.7279 204.735 39.9709C204.735 40.8321 203.277 40.9204 202.416 40.9204C200.826 40.9204 198.33 40.2138 198.33 36.5479V26.4559H196.762C196.321 26.4559 196.122 26.1688 196.122 25.5063V25.1309C196.122 24.4684 196.321 24.1813 196.762 24.1813H198.352L198.728 20.8688C198.75 20.4271 199.081 20.1621 199.744 20.1621H200.053C200.737 20.1842 201.002 20.4271 201.002 20.8688Z" fill="#216B8C"/>
<path d="M211.205 17.6446V26.1908C212.309 25.0867 214.032 24.0046 216.041 24.0046C218.073 24.0046 221.076 24.8217 221.076 29.1279V40.1033C221.076 40.545 220.701 40.81 219.817 40.81H219.685C218.802 40.81 218.426 40.5671 218.426 40.1033V29.3708C218.426 27.4938 217.344 26.3013 215.202 26.3013C212.817 26.3013 211.205 28.5096 211.205 28.5096V40.1033C211.205 40.545 210.83 40.81 209.946 40.81H209.814C208.93 40.81 208.555 40.5671 208.555 40.1033V17.6446C208.555 17.2029 208.93 16.9379 209.814 16.9379H209.946C210.83 16.96 211.205 17.2029 211.205 17.6446Z" fill="#216B8C"/>
<path d="M68.5688 19.0358L76.0771 39.8604C76.1433 40.015 76.1654 40.1475 76.1654 40.28C76.1654 40.5892 75.7458 40.81 74.7963 40.81H74.5533C73.9129 40.81 73.405 40.6775 73.2946 40.3021L71.4175 35.1125H62.1204L60.3096 40.3021C60.1771 40.6775 59.6692 40.81 59.0508 40.81H58.8963C57.9467 40.81 57.5271 40.6113 57.5271 40.28C57.5271 40.1475 57.5492 40.015 57.6154 39.8383L65.1237 19.0358C65.2562 18.6604 65.7642 18.5279 66.3825 18.5279H67.31C67.9283 18.5279 68.4363 18.6604 68.5688 19.0358ZM66.8021 21.4429C66.6696 22.0392 66.5592 22.6796 66.3383 23.2758L63.0258 32.7054H70.6004L67.2879 23.2758C67.0892 22.7017 67.0008 22.0392 66.9125 21.4429H66.8021Z" fill="#6BC7D4"/>
<path d="M89.1946 26.3896C89.3271 25.7492 89.4375 25.1529 89.7025 24.5125C89.835 24.2254 90.1221 24.1371 90.5637 24.1371H90.6962C91.3587 24.1371 91.6458 24.38 91.6458 24.8438V46.6621C91.6458 47.1038 91.2704 47.3688 90.3871 47.3688H90.2546C89.3712 47.3688 88.9958 47.1258 88.9958 46.6621V39.3525C87.7592 40.3021 86.4342 40.9646 84.4687 40.9646C80.6925 40.9646 78.0425 37.9833 78.0425 32.5508C78.0425 27.5821 80.3833 24.0267 84.1817 24.0267C85.9704 24.0046 87.6487 24.7775 89.1946 26.3896ZM80.8029 32.7275C80.8029 36.5038 82.2162 38.6458 85.0429 38.6238C86.5004 38.6017 87.8254 38.16 88.9737 37.1883V28.5096C87.6708 27.0742 86.1029 26.3233 84.6896 26.3233C82.1942 26.3233 80.8029 28.6421 80.8029 32.7275Z" fill="#6BC7D4"/>
<path d="M109.047 24.8438V36.0842C109.047 38.69 109.423 39.9046 109.423 40.0813C109.423 40.6775 108.12 40.81 107.722 40.81C106.972 40.81 106.795 39.485 106.618 38.6017C105.293 40.0813 103.46 40.9867 101.672 40.9867C98.4475 40.9867 96.5042 39.0654 96.5042 35.8633V24.8879C96.5042 24.4463 96.8796 24.1813 97.7629 24.1813H97.8954C98.7787 24.1813 99.1542 24.4242 99.1542 24.8879V35.6204C99.1542 37.5417 100.325 38.69 102.378 38.69C103.814 38.69 105.315 37.8288 106.375 36.4817V24.8879C106.375 24.4463 106.751 24.1813 107.634 24.1813H107.767C108.672 24.1371 109.047 24.4021 109.047 24.8438Z" fill="#6BC7D4"/>
<path d="M126.317 28.9734V36.0621C126.317 38.6679 126.692 39.8825 126.692 40.0592C126.692 40.6554 125.389 40.7879 124.992 40.7879C124.241 40.7879 124.064 39.4629 123.887 38.5796C122.695 39.9046 120.95 40.9646 118.565 40.9646C115.496 40.9646 113.155 39.485 113.155 36.2167C113.155 30.8725 118.83 30.5192 123.667 30.4529V28.9734C123.667 27.5379 122.805 26.3234 120.177 26.3234C117.307 26.3234 115.562 27.6484 115.231 27.6484C114.789 27.6484 114.127 26.4117 114.127 26.0584C114.127 25.2413 116.909 24.0267 120.089 24.0267C124.02 24.0046 126.317 25.8375 126.317 28.9734ZM116.004 36.04C116.004 37.7184 116.931 38.6459 118.698 38.6459C121.017 38.6459 122.408 37.6079 123.667 36.4596V32.7275C120.376 32.7496 116.004 32.7496 116.004 36.04Z" fill="#6BC7D4"/>
<path d="M251.882 22.26C251.573 22.525 251.286 22.8121 251.043 23.1213C250.911 23.2758 250.756 23.4304 250.602 23.5629C250.293 23.8058 249.961 23.9604 249.608 24.0488L251.198 24.9542V26.6325C251.662 26.4338 252.103 26.2129 252.501 25.8596C252.81 25.5946 253.097 25.3296 253.362 24.9983C253.495 24.8438 253.649 24.6892 253.804 24.5567C254.709 23.8058 255.902 23.8058 256.785 24.5567C256.94 24.6892 257.094 24.8438 257.227 24.9983C257.293 25.0646 257.359 25.1308 257.425 25.1971C257.646 23.9163 257.735 22.7017 257.712 21.6196C255.835 20.67 253.561 20.8688 251.882 22.26Z" fill="#6BC7D4"/>
<path d="M251.882 28.885C251.617 29.1058 251.397 29.3488 251.176 29.5917V35.3333C253.318 33.8317 254.974 31.9104 256.078 29.5475C256.343 28.9954 256.542 28.4654 256.741 27.9133C255.107 27.4054 253.296 27.7367 251.882 28.885Z" fill="#6BC7D4"/>
<path d="M240.134 19.2346C240.443 18.9696 240.73 18.6825 240.973 18.3954C241.106 18.2188 241.26 18.0863 241.415 17.9538C242.32 17.2029 243.513 17.2029 244.418 17.9538C244.573 18.0863 244.728 18.2408 244.86 18.3954C245.169 18.7708 245.545 19.1242 245.942 19.4333C247.93 20.935 250.602 20.8246 252.501 19.2567C252.81 18.9917 253.097 18.7267 253.362 18.3954C253.495 18.2408 253.649 18.0863 253.804 17.9538C254.069 17.7329 254.378 17.5783 254.709 17.49C254.002 16.8938 253.384 16.0767 252.832 15.0388C252.501 15.2154 252.192 15.4142 251.905 15.6571C251.595 15.9221 251.308 16.2092 251.065 16.5183C250.933 16.6729 250.778 16.8275 250.624 16.96C249.718 17.7108 248.526 17.7108 247.62 16.96C247.466 16.8275 247.311 16.695 247.179 16.5183C246.914 16.2092 246.627 15.9221 246.34 15.6571C245.346 14.84 244.175 14.3983 242.939 14.3983C241.702 14.3983 240.532 14.84 239.538 15.6571C239.229 15.9221 238.942 16.2092 238.699 16.5183C238.566 16.6729 238.412 16.8275 238.257 16.96C237.352 17.7108 236.159 17.7108 235.254 16.96C235.099 16.8275 234.945 16.695 234.812 16.5183C234.547 16.2092 234.26 15.9221 233.973 15.6571C233.929 15.635 233.885 15.5908 233.862 15.5688C232.25 14.31 229.887 14.4204 228.43 15.8558L228.408 15.8779C227.701 17.1367 227.149 18.5058 226.818 19.8971C227.171 19.7204 227.502 19.5217 227.812 19.2788C228.121 19.0138 228.408 18.7267 228.651 18.4396C228.783 18.2629 228.938 18.1304 229.092 17.9979C229.998 17.2471 231.19 17.2471 232.096 17.9979C232.25 18.1304 232.405 18.285 232.537 18.4396C232.78 18.7488 233.068 19.0358 233.377 19.3008C235.32 20.8908 238.147 20.8688 240.134 19.2346Z" fill="#6BC7D4"/>
<path d="M238.632 23.1433C238.5 23.2979 238.368 23.4304 238.235 23.5408C237.33 24.2696 236.137 24.2696 235.254 23.5408C235.099 23.4083 234.945 23.2758 234.812 23.0992C234.547 22.79 234.26 22.5029 233.951 22.2379C231.963 20.6038 229.137 20.6038 227.149 22.2379C226.84 22.5029 226.553 22.79 226.31 23.0992C226.178 23.2538 226.023 23.4083 225.868 23.5408C225.957 24.6229 226.133 25.6608 226.398 26.6767C226.884 26.4779 227.348 26.2129 227.767 25.8596C228.077 25.5946 228.364 25.3075 228.607 24.9983C228.739 24.8438 228.894 24.6892 229.048 24.5567C229.954 23.8279 231.146 23.8279 232.03 24.5567C232.184 24.6892 232.339 24.8438 232.471 24.9983C232.736 25.3075 233.023 25.5946 233.31 25.8375C234.834 27.0963 236.866 27.3833 238.61 26.6988V23.1433H238.632Z" fill="#6BC7D4"/>
<path d="M234.216 29.15C234.127 29.0617 234.039 28.9734 233.951 28.885C231.963 27.2509 229.159 27.2509 227.149 28.885C227.326 29.2825 227.502 29.6579 227.701 30.0334C227.701 30.0334 227.701 30.0334 227.679 30.0334C227.723 30.0996 227.745 30.1658 227.79 30.2321C227.834 30.2983 227.856 30.3646 227.9 30.4309C228.099 30.7842 228.32 31.1375 228.54 31.4688C228.562 31.5129 228.607 31.5792 228.629 31.6233C229.203 32.4625 229.865 33.2796 230.616 34.0084C231.676 35.0463 232.891 35.9075 234.194 36.6142V29.15H234.216Z" fill="#6BC7D4"/>
</svg>
